<?xml version="1.0" encoding="utf-8"?>
<!-- Generator: Adobe Illustrator 24.0.2, SVG Export Plug-In . SVG Version: 6.00 Build 0)  -->
<svg version="1.1" id="Layer_1" xmlns="http://www.w3.org/2000/svg" xmlns:xlink="http://www.w3.org/1999/xlink" x="0px" y="0px"
	 viewBox="0 0 216 216" style="enable-background:new 0 0 216 216;" xml:space="preserve">
<style type="text/css">
	.st0{fill:#FFFFFF;}
</style>
<g>
	<g>
		<path class="st0" d="M107.8,111.5c-13.3,0-24.1-10.8-24.1-24.1s10.8-24.1,24.1-24.1s24.1,10.8,24.1,24.1S121.1,111.5,107.8,111.5z
			 M107.8,70.6c-9.2,0-16.8,7.5-16.8,16.8s7.5,16.8,16.8,16.8s16.8-7.5,16.8-16.8S117,70.6,107.8,70.6z"/>
	</g>
	<g>
		<path class="st0" d="M107.8,21.2c-36.5,0-66.3,29.6-66.2,66.2c0,1.4,0.1,2.8,0.2,4.3c0.2,3.2,0.7,6.4,1.3,9.5
			c0.8,4.1,2,8.1,3.5,12.1c2.1,0.8,4.2,1.5,6.5,2.3c0.9,0.3,1.8,0.6,2.7,0.9C51.7,106.9,49,97,49,87.3c0-15.6,6-30.4,17.1-41.5
			c11.1-11.2,26-17.3,41.7-17.3s30.4,6.1,41.5,17.2s17.2,25.9,17.3,41.6c0.1,9.7-2.6,19.6-6.7,29.2c3.2-1.1,6.2-2.1,9.2-3.2
			c3.1-8.6,4.9-17.4,4.9-26C173.7,50.8,144.3,21.2,107.8,21.2z M107.8,185c-5.5-5.1-15.1-14.4-24.9-26.2c-2.8,0.5-5.6,1-8.3,1.5
			c16.6,20.6,33.2,34.6,33.2,34.6s16.8-14.1,33.5-34.7c-2.7-0.5-5.5-0.9-8.3-1.5C123,170.5,113.3,179.9,107.8,185z"/>
	</g>
	<g>
		<path class="st0" d="M50.7,122.5c12.2,4.2,26.2,8.3,40.9,12.1c-5.7,1.2-11.2,2.2-16.7,3.2c-6.9-1.9-13.5-3.9-19.7-5.9
			c-8.6-2.8-16.5-5.6-23.5-8.4c-1.5-0.6-3-1.2-4.4-1.8C6.1,112.7,2,106.8,2,102.6c0-0.6,0.1-1.1,0.2-1.6c1-4.3,5.7-8.9,32.3-7.4
			c0.2,2.5,0.6,5,1,7.4c-19-1.2-24.5,0.9-25.9,1.7c0.9,1.4,5.6,6.4,27.6,15h0.1C41.5,119.3,45.9,120.9,50.7,122.5z"/>
	</g>
	<g>
		<path class="st0" d="M213.7,150.2c-0.9,3.7-4.5,7.7-22.8,7.7c-3.9,0-8.4-0.2-13.6-0.6c-14.9-1.1-33-3.8-52.5-7.6
			c5.7-1.4,11.3-2.9,16.7-4.4c12.2,2.1,23.5,3.6,33.5,4.5c23.5,2,29.9-0.4,31.4-1.3c-0.9-1.4-5.6-6.4-27.6-15h-0.1
			c2.9-1.1,5.7-2.1,8.3-3.2c0.6-0.2,1.1-0.4,1.6-0.7C212.6,139.8,214.7,145.9,213.7,150.2z"/>
	</g>
	<g>
		<path class="st0" d="M213.9,102.5c0,4.4-4.7,10.8-29.7,20.9c-18.8,7.6-44.2,15.3-71.7,21.7c-27.5,6.4-53.7,10.8-73.9,12.3
			c-5.3,0.4-9.8,0.6-13.6,0.6c-18.3,0-21.9-4-22.8-7.7c-1-4.3,1.1-10.4,25.1-20.7c0.5,0.2,1.1,0.4,1.6,0.7c2.6,1.1,5.4,2.1,8.3,3.2
			c0,0,0,0-0.1,0c-22,8.6-26.6,13.6-27.6,15c1.5,0.9,7.9,3.3,31.4,1.3c9.9-0.9,21.3-2.4,33.5-4.5h0.1c1.1-0.2,2.3-0.4,3.4-0.6
			c3.5-0.6,7.1-1.3,10.7-2c7.2-1.4,14.6-3,22.1-4.8c25.6-6,49.7-13.2,67.9-20.2c22-8.6,26.6-13.6,27.6-15c-1.4-0.8-6.9-2.9-25.9-1.7
			c0.5-2.5,0.8-5,1-7.4c26.6-1.5,31.3,3.1,32.3,7.4C213.8,101.4,213.9,101.9,213.9,102.5z"/>
	</g>
</g>
</svg>
