<?xml version="1.0" encoding="utf-8"?>
<!-- Generator: Adobe Illustrator 24.0.1, SVG Export Plug-In . SVG Version: 6.00 Build 0)  -->
<svg version="1.1" id="Layer_1" xmlns="http://www.w3.org/2000/svg" xmlns:xlink="http://www.w3.org/1999/xlink" x="0px" y="0px"
	 viewBox="0 0 216 216" style="enable-background:new 0 0 216 216;" xml:space="preserve">
<style type="text/css">
	.st0{opacity:0.15;fill:#FFFFFF;}
</style>
<path class="st0" d="M207.2,91h-0.6c-6.4,0-11.9-4.2-13.8-10.3c-1.5-4.7-3.4-9.2-5.6-13.5c-2.9-5.7-2-12.5,2.5-17l0.4-0.4
	c2.7-2.7,2.7-7,0-9.7l-14.3-14.3c-2.7-2.7-7-2.7-9.7,0l-0.4,0.4c-4.5,4.5-11.4,5.4-17,2.5c-4.3-2.2-8.8-4.1-13.5-5.6
	c-6.1-1.9-10.3-7.4-10.3-13.8V8.8c0-3.8-3.1-6.8-6.8-6.8H97.9C94.1,2,91,5,91,8.8v0.6c0,6.4-4.2,11.9-10.3,13.8
	c-4.7,1.5-9.2,3.4-13.5,5.6c-5.7,2.9-12.5,2-17-2.5l-0.4-0.4c-2.7-2.7-7-2.7-9.7,0L25.9,40.2c-2.7,2.7-2.7,7,0,9.7l0.4,0.4
	c4.5,4.5,5.4,11.4,2.5,17c-2.2,4.3-4.1,8.8-5.6,13.5C21.2,86.8,15.7,91,9.4,91H8.8C5,91,2,94.1,2,97.9v20.2c0,3.8,3.1,6.8,6.8,6.8
	h0.6c6.4,0,11.9,4.2,13.8,10.3c1.5,4.7,3.4,9.2,5.6,13.5c2.9,5.7,2,12.5-2.5,17l-0.4,0.4c-2.7,2.7-2.7,7,0,9.7l14.3,14.3
	c2.7,2.7,7,2.7,9.7,0l0.4-0.4c4.5-4.5,11.4-5.4,17-2.5c4.3,2.2,8.8,4.1,13.5,5.6c6.1,1.9,10.3,7.4,10.3,13.8v0.6
	c0,3.8,3.1,6.8,6.8,6.8h20.2c3.8,0,6.8-3.1,6.8-6.8v-0.6c0-6.4,4.2-11.9,10.3-13.8c4.7-1.5,9.2-3.4,13.5-5.6c5.7-2.9,12.5-2,17,2.5
	l0.4,0.4c2.7,2.7,7,2.7,9.7,0l14.3-14.3c2.7-2.7,2.7-7,0-9.7l-0.4-0.4c-4.5-4.5-5.4-11.4-2.5-17c2.2-4.3,4.1-8.8,5.6-13.5
	c1.9-6.1,7.4-10.3,13.8-10.3h0.6c3.8,0,6.8-3.1,6.8-6.8V97.9C214,94.1,211,91,207.2,91z M108,158.9c-28.1,0-50.9-22.8-50.9-50.9
	S79.9,57.1,108,57.1s50.9,22.8,50.9,50.9S136.1,158.9,108,158.9z"/>
</svg>
